Coordinates
version=1
nRows=14
nColumns=24
inDegrees=yes

Units are S.I. units (second, meters, Newtons, ...)
Angles are in degrees.

endheader
time	pelvis_tilt	pelvis_list	pelvis_rotation	pelvis_tx	pelvis_ty	pelvis_tz	hip_flexion_r	hip_adduction_r	hip_rotation_r	knee_angle_r	ankle_angle_r	subtalar_angle_r	mtp_angle_r	hip_flexion_l	hip_adduction_l	hip_rotation_l	knee_angle_l	ankle_angle_l	subtalar_angle_l	mtp_angle_l	lumbar_extension	lumbar_bending	lumbar_rotation
      2.27000000	     -6.21324280	      0.34576741	      1.77542588	      0.45579344	      1.22533920	     -0.83373747	      4.18444503	      3.57975479	     -6.62069753	    -43.25892016	     -0.77682420	      2.86247699	     24.98860344	     30.34419052	     10.06454440	      8.89999606	    -24.21935474	     27.76289634	     -4.17986316	    155.14650995	     -5.17032089	     -3.63902196	      1.60629892
      2.27500000	     -6.12567428	      0.63544694	      1.94187724	      0.46215087	      1.22594571	     -0.83409776	      5.00478306	      2.93412481	     -7.11048400	    -45.06136020	     -2.23124857	      2.59559040	     24.41986639	     29.80129063	     10.45967119	      8.91680152	    -24.38038339	     28.20197600	     -3.94982323	    155.52860636	     -5.17815545	     -4.02352351	      1.48737547
      2.28000000	     -6.06416728	      0.93277923	      2.07635167	      0.46843467	      1.22654879	     -0.83443095	      5.87892369	      2.29241483	     -7.49175229	    -46.80866219	     -3.47083428	      2.16464906	     24.08582577	     29.24201453	     10.84336581	      8.91890447	    -24.43900880	     28.56437250	     -3.86411285	    155.67314771	     -5.16475608	     -4.40798788	      1.41582077
      2.28500000	     -6.00675813	      1.17289993	      2.22989786	      0.47468741	      1.22718184	     -0.83477659	      6.72838242	      1.74020369	     -7.81445671	    -48.41741761	     -4.68402456	      1.68647707	     23.05396293	     28.66809187	     11.16767748	      8.96396999	    -24.47981608	     29.08089811	     -3.60990921	    155.91990375	     -5.14835093	     -4.72743722	      1.33044867
      2.29000000	     -5.93376847	      1.41369005	      2.37913348	      0.48087807	      1.22783584	     -0.83509874	      7.56286078	      1.19906581	     -8.09051500	    -49.94555674	     -5.66042407	      1.19243013	     21.94246964	     28.07768057	     11.47220596	      8.91883805	    -24.50722042	     29.53215011	     -3.33102882	    156.17460377	     -5.15470440	     -5.03711976	      1.19099843
      2.29500000	     -5.89475470	      1.61633660	      2.51079354	      0.48699921	      1.22850204	     -0.83540582	      8.43725163	      0.73222852	     -8.27795653	    -51.36295803	     -6.43674599	      0.55568906	     20.88574601	     27.50007504	     11.72815998	      8.90769989	    -24.48439277	     30.01159924	     -3.07271192	    156.38200928	     -5.13180908	     -5.30220403	      1.09338782
      2.30000000	     -5.85669499	      1.78351094	      2.63699317	      0.49303154	      1.22917251	     -0.83571286	      9.31295084	      0.32851520	     -8.41403850	    -52.67285031	     -7.02019580	     -0.15130832	     19.80534294	     26.92240059	     11.94026542	      8.89970046	    -24.44807907	     30.50535118	     -2.79783513	    156.57922164	     -5.11957237	     -5.51895814	      0.99375379
      2.30500000	     -5.83486226	      1.91435195	      2.75131002	      0.49899407	      1.22986982	     -0.83600709	     10.20451111	     -0.00689221	     -8.49422629	    -53.86389665	     -7.42716466	     -0.92773049	     18.75872757	     26.35754361	     12.10405397	      8.89261362	    -24.39276755	     30.99937930	     -2.51540175	    156.76379941	     -5.09695083	     -5.69105115	      0.89779932
      2.31000000	     -5.81628616	      2.01644130	      2.85543452	      0.50487313	      1.23056699	     -0.83629061	     11.10079676	     -0.28758934	     -8.53487010	    -54.94706150	     -7.64891600	     -1.74335914	     17.73608602	     25.80107959	     12.22989134	      8.87691001	    -24.33287058	     31.48667137	     -2.21761272	    156.95003079	     -5.08247671	     -5.82500197	      0.79552424
      2.31500000	     -5.83166077	      2.09394246	      2.92879053	      0.51066744	      1.23125605	     -0.83655428	     12.05156234	     -0.51375917	     -8.50669575	    -55.92890116	     -7.73215267	     -2.63905017	     17.03154728	     25.27883258	     12.32139819	      8.86445963	    -24.24708353	     31.93066223	     -2.01917295	    157.06682270	     -5.03900849	     -5.92238619	      0.71730250
      2.32000000	     -5.81348245	      2.12277131	      3.02910382	      0.51639852	      1.23197450	     -0.83683425	     12.93261408	     -0.67590979	     -8.51333258	    -56.76851040	     -7.69272174	     -3.45702681	     15.91709057	     24.74214830	     12.36207689	      8.86220797	    -24.20496454	     32.46230689	     -1.63403864	    157.29007030	     -5.04273753	     -5.96446500	      0.61801677
      2.32500000	     -5.84635908	      2.15455022	      3.07951768	      0.52203388	      1.23265465	     -0.83706611	     13.90343956	     -0.80852086	     -8.42261086	    -57.52931986	     -7.48899407	     -4.33795339	     15.34637613	     24.25604763	     12.39424045	      8.84489049	    -24.11835625	     32.84993350	     -1.44234691	    157.39567665	     -5.00988904	     -5.99628374	      0.49890304
      2.33000000	     -5.84291596	      2.13430792	      3.14936727	      0.52763132	      1.23337254	     -0.83730844	     14.79637735	     -0.87097752	     -8.36501523	    -58.13950277	     -7.22780995	     -5.13169579	     14.37510874	     23.75511030	     12.37111509	      8.82992450	    -24.08627006	     33.36204791	     -1.08405417	    157.64431140	     -5.01848931	     -5.96917332	      0.38610255
      2.33500000	     -5.87806659	      2.13626475	      3.19704790	      0.53311229	      1.23402338	     -0.83754541	     15.76203773	     -0.95391203	     -8.26756020	    -58.68745619	     -6.77774669	     -5.88762776	     14.01136406	     23.29211003	     12.37974529	      8.86494563	    -24.01224852	     33.71078233	     -0.92082678	    157.69786273	     -5.00714245	     -5.96051932	      0.30180042
